<svg xmlns="http://www.w3.org/2000/svg" width="140" height="110" viewBox="0 0 28 22">
  <metadata><?xpacket begin="﻿" id="W5M0MpCehiHzreSzNTczkc9d"?>
<x:xmpmeta xmlns:x="adobe:ns:meta/" x:xmptk="Adobe XMP Core 5.6-c138 79.159824, 2016/09/14-01:09:01        ">
   <rdf:RDF xmlns:rdf="http://www.w3.org/1999/02/22-rdf-syntax-ns#">
      <rdf:Description rdf:about=""/>
   </rdf:RDF>
</x:xmpmeta>
                                                                                                    
                                                                                                    
                                                                                                    
                                                                                                    
                                                                                                    
                                                                                                    
                                                                                                    
                                                                                                    
                                                                                                    
                                                                                                    
                                                                                                    
                                                                                                    
                                                                                                    
                                                                                                    
                                                                                                    
                                                                                                    
                                                                                                    
                                                                                                    
                                                                                                    
                                                                                                    
                           
<?xpacket end="w"?></metadata>
<defs>
    <style>
      .cls-1 {
        fill: #3489d8;
        fill-rule: evenodd;
      }
    </style>
  </defs>
  <path class="cls-1" d="M1256.17,1494h-26.34a0.839,0.839,0,0,0-.83.85v17.48a0.83,0.83,0,0,0,.83.84h1.05v1.98a0.837,0.837,0,0,0,.82.85h4.85a0.839,0.839,0,0,0,.83-0.85v-1.98h11.11v1.98a0.837,0.837,0,0,0,.82.85h4.85a0.837,0.837,0,0,0,.82-0.85v-1.98h1.19a0.83,0.83,0,0,0,.83-0.84v-17.48a0.839,0.839,0,0,0-.83-0.85h0Zm-0.82,1.69v8.09a3.951,3.951,0,0,0-1.27-.62v-1.29a3.048,3.048,0,0,0-3.01-3.08h-5.89a2.955,2.955,0,0,1-4.36,0h-5.89a3.048,3.048,0,0,0-3.01,3.08v1.29a3.951,3.951,0,0,0-1.27.62v-8.09h24.7Zm-11.52,6.18a1.372,1.372,0,0,1,1.35-1.39h5.89a1.381,1.381,0,0,1,1.36,1.39v1.15h-8.6v-1.15Zm-1.66,1.15h-8.6v-1.15a1.381,1.381,0,0,1,1.36-1.39h5.89a1.372,1.372,0,0,1,1.35,1.39v1.15Zm-6.45,11.29h-3.19v-1.14h3.19v1.14Zm17.61,0h-3.19v-1.14h3.19v1.14Zm2.02-2.83h-24.7v-4.42a2.322,2.322,0,0,1,2.29-2.35h20.12a2.322,2.322,0,0,1,2.29,2.35v4.42Zm0,0" transform="translate(-1229 -1494)"/>
</svg>
