<svg xmlns="http://www.w3.org/2000/svg" width="120" height="110" viewBox="0 0 24 22">
  <metadata><?xpacket begin="﻿" id="W5M0MpCehiHzreSzNTczkc9d"?>
<x:xmpmeta xmlns:x="adobe:ns:meta/" x:xmptk="Adobe XMP Core 5.6-c138 79.159824, 2016/09/14-01:09:01        ">
   <rdf:RDF xmlns:rdf="http://www.w3.org/1999/02/22-rdf-syntax-ns#">
      <rdf:Description rdf:about=""/>
   </rdf:RDF>
</x:xmpmeta>
                                                                                                    
                                                                                                    
                                                                                                    
                                                                                                    
                                                                                                    
                                                                                                    
                                                                                                    
                                                                                                    
                                                                                                    
                                                                                                    
                                                                                                    
                                                                                                    
                                                                                                    
                                                                                                    
                                                                                                    
                                                                                                    
                                                                                                    
                                                                                                    
                                                                                                    
                                                                                                    
                           
<?xpacket end="w"?></metadata>
<defs>
    <style>
      .cls-1 {
        fill: #3489d8;
        fill-rule: evenodd;
      }
    </style>
  </defs>
  <path class="cls-1" d="M1358.04,1504.78a0.677,0.677,0,0,0-.69.68v9.22h-4.9v-3.77a0.681,0.681,0,0,0-.67-0.66h-3.55a0.688,0.688,0,0,0-.7.66v3.77h-4.9v-8.92a0.681,0.681,0,0,0-1.36,0v9.59a0.666,0.666,0,0,0,.67.65h6.29a0.66,0.66,0,0,0,.67-0.65v-3.76h2.19v3.76a0.665,0.665,0,0,0,.69.65h6.26a0.66,0.66,0,0,0,.67-0.65v-9.89a0.672,0.672,0,0,0-.67-0.68h0Zm0,0,3.76,0.53-5.46-5.35v-3.64a0.677,0.677,0,0,0-.7-0.67,0.664,0.664,0,0,0-.67.67v2.31l-4.5-4.42a0.656,0.656,0,0,0-.47-0.21,0.726,0.726,0,0,0-.49.21l-11.31,11.03a0.627,0.627,0,0,0,0,.93,0.67,0.67,0,0,0,.96,0l10.84-10.55,10.82,10.65a0.677,0.677,0,0,0,.49.17,0.768,0.768,0,0,0,.49-0.17,0.679,0.679,0,0,0,0-.96h0Zm0,0" transform="translate(-1338 -1494)"/>
</svg>
